<mxfile host="65bd71144e">
    <diagram id="DyWaHtlO8swVE40llYY6" name="Page-1">
        <mxGraphModel dx="606" dy="556" grid="1" gridSize="10" guides="1" tooltips="1" connect="1" arrows="1" fold="1" page="1" pageScale="1" pageWidth="827" pageHeight="583" math="0" shadow="0">
            <root>
                <mxCell id="0"/>
                <mxCell id="1" parent="0"/>
                <mxCell id="19" style="edgeStyle=none;html=1;exitX=0.5;exitY=1;exitDx=0;exitDy=0;" parent="1" source="2" edge="1">
                    <mxGeometry relative="1" as="geometry">
                        <mxPoint x="395" y="100" as="targetPoint"/>
                    </mxGeometry>
                </mxCell>
                <mxCell id="2" value="I" style="ellipse;whiteSpace=wrap;html=1;fontStyle=1;fillColor=#dae8fc;strokeColor=#6c8ebf;" parent="1" vertex="1">
                    <mxGeometry x="370" y="30" width="50" height="50" as="geometry"/>
                </mxCell>
                <mxCell id="3" value="" style="group;fontStyle=0;pointerEvents=0;align=center;verticalAlign=top;fontFamily=Helvetica;fontSize=12;fontColor=default;fillColor=none;gradientColor=none;dropTarget=0;" parent="1" vertex="1" connectable="0">
                    <mxGeometry x="95" y="100" width="540" height="400" as="geometry"/>
                </mxCell>
                <mxCell id="4" style="rounded=0;orthogonalLoop=1;jettySize=auto;html=1;verticalAlign=middle;endArrow=none;endFill=0;fontFamily=Helvetica;fontSize=12;fontColor=default;" parent="3" edge="1">
                    <mxGeometry relative="1" as="geometry">
                        <mxPoint x="60" y="360" as="targetPoint"/>
                        <mxPoint x="59.66" y="220" as="sourcePoint"/>
                    </mxGeometry>
                </mxCell>
                <mxCell id="5" style="edgeStyle=orthogonalEdgeStyle;rounded=0;orthogonalLoop=1;jettySize=auto;html=1;endArrow=none;endFill=0;fontFamily=Helvetica;fontSize=12;fontColor=default;" parent="3" edge="1">
                    <mxGeometry relative="1" as="geometry">
                        <mxPoint x="60" as="targetPoint"/>
                        <mxPoint x="59.66" y="110" as="sourcePoint"/>
                        <Array as="points">
                            <mxPoint x="59.66" y="41"/>
                            <mxPoint x="59.66" y="41"/>
                        </Array>
                    </mxGeometry>
                </mxCell>
                <mxCell id="6" value="" style="endArrow=none;html=1;rounded=0;fontFamily=Helvetica;fontSize=12;fontColor=default;" parent="3" edge="1">
                    <mxGeometry width="50" height="50" relative="1" as="geometry">
                        <mxPoint x="60" y="360" as="sourcePoint"/>
                        <mxPoint x="540" y="360" as="targetPoint"/>
                    </mxGeometry>
                </mxCell>
                <mxCell id="7" value="" style="endArrow=none;html=1;rounded=0;fontFamily=Helvetica;fontSize=12;fontColor=default;" parent="3" edge="1">
                    <mxGeometry width="50" height="50" relative="1" as="geometry">
                        <mxPoint x="60" as="sourcePoint"/>
                        <mxPoint x="540" as="targetPoint"/>
                    </mxGeometry>
                </mxCell>
                <mxCell id="8" value="" style="endArrow=none;html=1;rounded=0;fontFamily=Helvetica;fontSize=12;fontColor=default;" parent="3" edge="1">
                    <mxGeometry width="50" height="50" relative="1" as="geometry">
                        <mxPoint x="540" y="360" as="sourcePoint"/>
                        <mxPoint x="540" as="targetPoint"/>
                        <Array as="points">
                            <mxPoint x="540" y="180"/>
                        </Array>
                    </mxGeometry>
                </mxCell>
                <mxCell id="9" value="" style="group;fontSize=11;fontStyle=0;pointerEvents=0;align=center;verticalAlign=top;fontFamily=Helvetica;fontColor=default;fillColor=none;gradientColor=none;" parent="3" vertex="1" connectable="0">
                    <mxGeometry y="110" width="120" height="110" as="geometry"/>
                </mxCell>
                <mxCell id="10" value="" style="shape=lineEllipse;perimeter=ellipsePerimeter;whiteSpace=wrap;html=1;backgroundOutline=1;pointerEvents=0;align=center;verticalAlign=top;fontFamily=Helvetica;fontSize=12;fontColor=default;fillColor=none;gradientColor=none;" parent="9" vertex="1">
                    <mxGeometry x="4.337349397590361" width="115.66265060240964" height="110" as="geometry"/>
                </mxCell>
                <mxCell id="11" value="" style="endArrow=none;html=1;rounded=0;entryX=0.303;entryY=0.498;entryDx=0;entryDy=0;entryPerimeter=0;exitX=0.3;exitY=0.957;exitDx=0;exitDy=0;exitPerimeter=0;fontFamily=Helvetica;fontSize=12;fontColor=default;" parent="9" source="10" target="10" edge="1">
                    <mxGeometry width="50" height="50" relative="1" as="geometry">
                        <mxPoint x="4.337349397590361" y="137.5" as="sourcePoint"/>
                        <mxPoint x="76.62650602409639" y="68.75" as="targetPoint"/>
                    </mxGeometry>
                </mxCell>
                <mxCell id="12" value="" style="endArrow=none;html=1;rounded=0;entryX=0.702;entryY=0.495;entryDx=0;entryDy=0;entryPerimeter=0;exitX=0.701;exitY=0.955;exitDx=0;exitDy=0;exitPerimeter=0;fontFamily=Helvetica;fontSize=12;fontColor=default;" parent="9" source="10" target="10" edge="1">
                    <mxGeometry width="50" height="50" relative="1" as="geometry">
                        <mxPoint x="76.62650602409639" y="110" as="sourcePoint"/>
                        <mxPoint x="76.62650602409639" y="59.125" as="targetPoint"/>
                    </mxGeometry>
                </mxCell>
                <mxCell id="13" value="&lt;font style=&quot;font-size: 9px;&quot;&gt;X=1&lt;/font&gt;" style="text;html=1;align=center;verticalAlign=middle;whiteSpace=wrap;rounded=0;fontSize=12;fontFamily=Helvetica;fontColor=default;" parent="9" vertex="1">
                    <mxGeometry y="55" width="43.373493975903614" height="27.5" as="geometry"/>
                </mxCell>
                <mxCell id="14" value="&lt;font style=&quot;font-size: 9px; font-weight: normal;&quot;&gt;X&amp;lt;=1&lt;/font&gt;" style="text;html=1;align=center;verticalAlign=middle;whiteSpace=wrap;rounded=0;fontSize=12;fontStyle=1;fontFamily=Helvetica;fontColor=default;" parent="9" vertex="1">
                    <mxGeometry x="40.48192771084337" y="55" width="43.373493975903614" height="27.5" as="geometry"/>
                </mxCell>
                <mxCell id="15" value="&lt;font style=&quot;font-size: 9px; font-weight: normal;&quot;&gt;X++&lt;/font&gt;" style="text;html=1;align=center;verticalAlign=middle;whiteSpace=wrap;rounded=0;fontSize=12;fontStyle=1;fontFamily=Helvetica;fontColor=default;" parent="9" vertex="1">
                    <mxGeometry x="76.62650602409639" y="55" width="43.373493975903614" height="27.5" as="geometry"/>
                </mxCell>
                <mxCell id="16" value="x" style="text;html=1;align=center;verticalAlign=middle;whiteSpace=wrap;rounded=0;fontFamily=Helvetica;fontSize=12;fontColor=default;" parent="9" vertex="1">
                    <mxGeometry x="18.795180722891565" y="13.75" width="86.74698795180723" height="41.25" as="geometry"/>
                </mxCell>
                <mxCell id="17" value="" style="endArrow=none;html=1;rounded=0;fontFamily=Helvetica;fontSize=12;fontColor=default;endFill=0;" parent="3" edge="1">
                    <mxGeometry width="50" height="50" relative="1" as="geometry">
                        <mxPoint x="300" y="360" as="sourcePoint"/>
                        <mxPoint x="300" y="400" as="targetPoint"/>
                    </mxGeometry>
                </mxCell>
                <mxCell id="36" style="edgeStyle=none;html=1;exitX=0.5;exitY=1;exitDx=0;exitDy=0;" parent="1" source="20" edge="1">
                    <mxGeometry relative="1" as="geometry">
                        <mxPoint x="414" y="160" as="targetPoint"/>
                    </mxGeometry>
                </mxCell>
                <mxCell id="20" value="n" style="shape=trapezoid;perimeter=trapezoidPerimeter;whiteSpace=wrap;html=1;fixedSize=1;pointerEvents=0;align=center;verticalAlign=top;fontFamily=Helvetica;fontSize=12;fillColor=#e1d5e7;size=20;flipV=1;strokeColor=#9673a6;" parent="1" vertex="1">
                    <mxGeometry x="334" y="110" width="160" height="30" as="geometry"/>
                </mxCell>
                <mxCell id="21" value="" style="group;fontStyle=0;pointerEvents=0;align=center;verticalAlign=top;fontFamily=Helvetica;fontSize=12;fontColor=default;fillColor=none;gradientColor=none;dropTarget=0;" parent="1" vertex="1" connectable="0">
                    <mxGeometry x="230" y="157" width="340" height="303" as="geometry"/>
                </mxCell>
                <mxCell id="22" style="rounded=0;orthogonalLoop=1;jettySize=auto;html=1;verticalAlign=middle;endArrow=none;endFill=0;fontFamily=Helvetica;fontSize=12;fontColor=default;" parent="21" edge="1">
                    <mxGeometry relative="1" as="geometry">
                        <mxPoint x="37.77777777777778" y="272.7" as="targetPoint"/>
                        <mxPoint x="37.5637037037037" y="166.65" as="sourcePoint"/>
                    </mxGeometry>
                </mxCell>
                <mxCell id="23" style="edgeStyle=orthogonalEdgeStyle;rounded=0;orthogonalLoop=1;jettySize=auto;html=1;endArrow=none;endFill=0;fontFamily=Helvetica;fontSize=12;fontColor=default;" parent="21" edge="1">
                    <mxGeometry relative="1" as="geometry">
                        <mxPoint x="37.77777777777778" as="targetPoint"/>
                        <mxPoint x="37.5637037037037" y="83.325" as="sourcePoint"/>
                        <Array as="points">
                            <mxPoint x="37.5637037037037" y="31.057499999999997"/>
                            <mxPoint x="37.5637037037037" y="31.057499999999997"/>
                        </Array>
                    </mxGeometry>
                </mxCell>
                <mxCell id="24" value="" style="endArrow=none;html=1;rounded=0;fontFamily=Helvetica;fontSize=12;fontColor=default;" parent="21" edge="1">
                    <mxGeometry width="50" height="50" relative="1" as="geometry">
                        <mxPoint x="37.77777777777778" y="272.7" as="sourcePoint"/>
                        <mxPoint x="340" y="272.7" as="targetPoint"/>
                    </mxGeometry>
                </mxCell>
                <mxCell id="25" value="" style="endArrow=none;html=1;rounded=0;fontFamily=Helvetica;fontSize=12;fontColor=default;" parent="21" edge="1">
                    <mxGeometry width="50" height="50" relative="1" as="geometry">
                        <mxPoint x="37.77777777777778" as="sourcePoint"/>
                        <mxPoint x="340" as="targetPoint"/>
                    </mxGeometry>
                </mxCell>
                <mxCell id="26" value="" style="endArrow=none;html=1;rounded=0;fontFamily=Helvetica;fontSize=12;fontColor=default;" parent="21" edge="1">
                    <mxGeometry width="50" height="50" relative="1" as="geometry">
                        <mxPoint x="340" y="272.7" as="sourcePoint"/>
                        <mxPoint x="340" as="targetPoint"/>
                        <Array as="points">
                            <mxPoint x="340" y="136.35"/>
                        </Array>
                    </mxGeometry>
                </mxCell>
                <mxCell id="27" value="" style="group;fontSize=11;fontStyle=0;pointerEvents=0;align=center;verticalAlign=top;fontFamily=Helvetica;fontColor=default;fillColor=none;gradientColor=none;" parent="21" vertex="1" connectable="0">
                    <mxGeometry y="83.325" width="75.55555555555556" height="83.325" as="geometry"/>
                </mxCell>
                <mxCell id="28" value="" style="shape=lineEllipse;perimeter=ellipsePerimeter;whiteSpace=wrap;html=1;backgroundOutline=1;pointerEvents=0;align=center;verticalAlign=top;fontFamily=Helvetica;fontSize=12;fontColor=default;fillColor=none;gradientColor=none;" parent="27" vertex="1">
                    <mxGeometry x="2.7309236947791162" width="72.82463186077645" height="83.325" as="geometry"/>
                </mxCell>
                <mxCell id="29" value="" style="endArrow=none;html=1;rounded=0;entryX=0.303;entryY=0.498;entryDx=0;entryDy=0;entryPerimeter=0;exitX=0.3;exitY=0.957;exitDx=0;exitDy=0;exitPerimeter=0;fontFamily=Helvetica;fontSize=12;fontColor=default;" parent="27" source="28" target="28" edge="1">
                    <mxGeometry width="50" height="50" relative="1" as="geometry">
                        <mxPoint x="2.7309236947791162" y="104.15625" as="sourcePoint"/>
                        <mxPoint x="48.246318607764394" y="52.078125" as="targetPoint"/>
                    </mxGeometry>
                </mxCell>
                <mxCell id="30" value="" style="endArrow=none;html=1;rounded=0;entryX=0.702;entryY=0.495;entryDx=0;entryDy=0;entryPerimeter=0;exitX=0.701;exitY=0.955;exitDx=0;exitDy=0;exitPerimeter=0;fontFamily=Helvetica;fontSize=12;fontColor=default;" parent="27" source="28" target="28" edge="1">
                    <mxGeometry width="50" height="50" relative="1" as="geometry">
                        <mxPoint x="48.246318607764394" y="83.325" as="sourcePoint"/>
                        <mxPoint x="48.246318607764394" y="44.787187499999995" as="targetPoint"/>
                    </mxGeometry>
                </mxCell>
                <mxCell id="31" value="&lt;font style=&quot;font-size: 9px;&quot;&gt;X=1&lt;/font&gt;" style="text;html=1;align=center;verticalAlign=middle;whiteSpace=wrap;rounded=0;fontSize=12;fontFamily=Helvetica;fontColor=default;" parent="27" vertex="1">
                    <mxGeometry y="41.6625" width="27.309236947791163" height="20.83125" as="geometry"/>
                </mxCell>
                <mxCell id="32" value="&lt;font style=&quot;font-size: 9px; font-weight: normal;&quot;&gt;X&amp;lt;=10&lt;/font&gt;" style="text;html=1;align=center;verticalAlign=middle;whiteSpace=wrap;rounded=0;fontSize=12;fontStyle=1;fontFamily=Helvetica;fontColor=default;" parent="27" vertex="1">
                    <mxGeometry x="25.488621151271754" y="41.6625" width="27.309236947791163" height="20.83125" as="geometry"/>
                </mxCell>
                <mxCell id="33" value="&lt;font style=&quot;font-size: 9px; font-weight: normal;&quot;&gt;J++&lt;/font&gt;" style="text;html=1;align=center;verticalAlign=middle;whiteSpace=wrap;rounded=0;fontSize=12;fontStyle=1;fontFamily=Helvetica;fontColor=default;" parent="27" vertex="1">
                    <mxGeometry x="48.246318607764394" y="41.6625" width="27.309236947791163" height="20.83125" as="geometry"/>
                </mxCell>
                <mxCell id="34" value="J" style="text;html=1;align=center;verticalAlign=middle;whiteSpace=wrap;rounded=0;fontFamily=Helvetica;fontSize=12;fontColor=default;" parent="27" vertex="1">
                    <mxGeometry x="11.834002677376171" y="10.415625" width="54.618473895582326" height="31.246875" as="geometry"/>
                </mxCell>
                <mxCell id="35" value="" style="endArrow=none;html=1;rounded=0;fontFamily=Helvetica;fontSize=12;fontColor=default;endFill=0;" parent="21" edge="1">
                    <mxGeometry width="50" height="50" relative="1" as="geometry">
                        <mxPoint x="188.88888888888886" y="272.7" as="sourcePoint"/>
                        <mxPoint x="188.88888888888886" y="303" as="targetPoint"/>
                    </mxGeometry>
                </mxCell>
                <mxCell id="37" value="i*j" style="shape=trapezoid;perimeter=trapezoidPerimeter;whiteSpace=wrap;html=1;fixedSize=1;pointerEvents=0;align=center;verticalAlign=top;fontFamily=Helvetica;fontSize=12;fillColor=#fff2cc;size=20;strokeColor=#d6b656;" parent="1" vertex="1">
                    <mxGeometry x="334" y="200" width="160" height="30" as="geometry"/>
                </mxCell>
                <mxCell id="38" value="F" style="ellipse;whiteSpace=wrap;html=1;fillColor=#f8cecc;strokeColor=#b85450;" parent="1" vertex="1">
                    <mxGeometry x="370" y="500" width="50" height="50" as="geometry"/>
                </mxCell>
            </root>
        </mxGraphModel>
    </diagram>
</mxfile>